<svg width="35" height="32" viewBox="0 0 35 32" fill="none" xmlns="http://www.w3.org/2000/svg">
<path d="M33.308 6.84717C33.3081 6.84718 33.3082 6.84718 33.3496 5.84804L33.3082 6.84718L33.3743 6.84992L33.3831 6.84912C33.4089 6.86106 33.4725 6.89694 33.5613 6.99719C33.714 7.16953 33.8885 7.49014 33.9343 7.99329C33.992 8.6285 34.0067 11.2119 33.9974 14.2738C33.9882 17.2779 33.957 20.6571 33.9308 22.871C33.9104 23.0327 33.8415 23.2692 33.7218 23.4441C33.6636 23.5292 33.6075 23.579 33.5597 23.6073C33.5182 23.6319 33.4568 23.6566 33.3496 23.6566H21.5716H19.6453L20.7537 25.232C20.9538 25.5164 21.1713 25.8311 21.4079 26.1792C22.4136 27.6581 22.5934 28.6073 22.5571 29.1226C22.5224 29.6161 22.2943 29.764 22.2618 29.7802L22.2235 29.7994L22.1869 29.8217L20.6949 30.7351C20.6648 30.7429 20.6174 30.7535 20.5493 30.7655C20.3709 30.7967 20.1157 30.8258 19.7936 30.8472C19.153 30.8899 18.3144 30.8983 17.4289 30.8552C16.5423 30.8122 15.6328 30.7188 14.8448 30.5654C14.0278 30.4064 13.4517 30.203 13.1482 30.0006C9.68362 27.6909 7.5685 24.8933 7.0324 23.6424L7.00567 23.58L6.97075 23.5218C5.71211 21.4241 2.92372 16.4812 1.68637 13.281C0.440674 9.10033 1.05856 6.22262 2.20121 4.32011C3.33306 2.43558 5.04594 1.39656 6.2788 1.00666C6.32522 1.021 6.44613 1.0711 6.65453 1.25151C6.96559 1.5208 7.31937 1.95284 7.68688 2.50566C8.41616 3.60267 9.0745 4.98345 9.454 5.91955L9.47231 5.9647L9.49491 6.00785C9.52948 6.07386 9.56539 6.14971 9.60067 6.23403L10.1534 7.5551L11.0857 6.69024C11.1008 6.68678 11.1183 6.68298 11.1384 6.67892C11.2999 6.64632 11.5432 6.6135 11.8738 6.58386C12.5297 6.52505 13.4359 6.48664 14.5213 6.46555C16.6869 6.42346 19.4938 6.45144 22.2824 6.50801C25.0684 6.56452 27.8251 6.64931 29.8861 6.72002C30.9164 6.75536 31.7723 6.78717 32.3705 6.81014C32.6696 6.82162 32.9043 6.83089 33.064 6.83728L33.2462 6.84464L33.2927 6.84654L33.3044 6.84702L33.3073 6.84714L33.308 6.84717ZM20.7329 30.7237C20.7329 30.7238 20.7297 30.725 20.7228 30.7272C20.7293 30.7247 20.7328 30.7236 20.7329 30.7237ZM11.0093 6.71062C11.0103 6.71028 11.0116 6.70982 11.0134 6.70926C11.0025 6.71379 11.0002 6.71388 11.0093 6.71062Z" stroke="white" stroke-width="2"/>
</svg>
