<svg width="312" height="318" viewBox="0 0 312 318" fill="none" xmlns="http://www.w3.org/2000/svg">
<g filter="url(#filter0_d_20_5)">
<rect x="46" y="42" width="220" height="226" rx="69" fill="#1F1F1F"/>
<path d="M103.059 206.4C95.6588 206.4 89.0088 205.25 83.1088 202.95C77.2088 200.65 72.5088 197.3 69.0088 192.9V177.6H93.4588V185.7C94.4588 186.6 95.6588 187.35 97.0588 187.95C98.5588 188.55 99.9588 188.85 101.259 188.85C104.159 188.85 106.259 188.2 107.559 186.9C108.859 185.5 109.509 183.25 109.509 180.15V130.05C109.509 126.35 107.459 124.5 103.359 124.5H100.209V106.95H146.409V124.5H143.259C139.259 124.5 137.259 126.35 137.259 130.05V175.35C137.259 185.05 134.309 192.65 128.409 198.15C122.509 203.65 114.059 206.4 103.059 206.4ZM150.853 186.6H154.003C156.103 186.6 157.603 186.1 158.503 185.1C159.503 184.1 160.003 182.6 160.003 180.6V130.05C160.003 126.35 158.003 124.5 154.003 124.5H150.853V106.95H209.203C217.803 106.95 224.603 109.25 229.603 113.85C234.603 118.35 237.103 125 237.103 133.8C237.103 138 235.903 142 233.503 145.8C231.103 149.5 227.803 152.5 223.603 154.8C228.503 157 232.203 159.8 234.703 163.2C237.203 166.5 238.453 170.9 238.453 176.4C238.453 185 235.853 191.75 230.653 196.65C225.453 201.55 218.603 204 210.103 204H150.853V186.6ZM199.303 146.55C202.103 146.55 204.503 145.65 206.503 143.85C208.603 141.95 209.653 139.15 209.653 135.45C209.653 132.05 208.703 129.35 206.803 127.35C204.903 125.35 202.353 124.35 199.153 124.35H187.753V146.55H199.303ZM200.203 186.6C203.403 186.6 206.003 185.7 208.003 183.9C210.103 182 211.153 179.1 211.153 175.2C211.153 171.2 210.003 168.4 207.703 166.8C205.503 165.2 202.853 164.4 199.753 164.4H187.753V186.6H200.203Z" fill="#01EEFF"/>
</g>
<defs>
<filter id="filter0_d_20_5" x="0.700001" y="0.700001" width="310.6" height="316.6" filterUnits="userSpaceOnUse" color-interpolation-filters="sRGB">
<feFlood flood-opacity="0" result="BackgroundImageFix"/>
<feColorMatrix in="SourceAlpha" type="matrix" values="0 0 0 0 0 0 0 0 0 0 0 0 0 0 0 0 0 0 127 0" result="hardAlpha"/>
<feMorphology radius="14" operator="dilate" in="SourceAlpha" result="effect1_dropShadow_20_5"/>
<feOffset dy="4"/>
<feGaussianBlur stdDeviation="15.65"/>
<feComposite in2="hardAlpha" operator="out"/>
<feColorMatrix type="matrix" values="0 0 0 0 0.00392157 0 0 0 0 0.933333 0 0 0 0 1 0 0 0 1 0"/>
<feBlend mode="normal" in2="BackgroundImageFix" result="effect1_dropShadow_20_5"/>
<feBlend mode="normal" in="SourceGraphic" in2="effect1_dropShadow_20_5" result="shape"/>
</filter>
</defs>
</svg>

