<svg width="35" height="36" viewBox="0 0 35 36" fill="none" xmlns="http://www.w3.org/2000/svg">
<path d="M29.5312 9.25H5.46875C3.65657 9.25 2.1875 10.7191 2.1875 12.5312V27.8438C2.1875 29.6559 3.65657 31.125 5.46875 31.125H29.5312C31.3434 31.125 32.8125 29.6559 32.8125 27.8438V12.5312C32.8125 10.7191 31.3434 9.25 29.5312 9.25Z" stroke="white" stroke-width="2" stroke-linejoin="round"/>
<path d="M9.84375 9.25V7.0625C9.84375 6.48234 10.0742 5.92594 10.4845 5.5157C10.8947 5.10547 11.4511 4.875 12.0312 4.875H22.9688C23.5489 4.875 24.1053 5.10547 24.5155 5.5157C24.9258 5.92594 25.1562 6.48234 25.1562 7.0625V9.25M32.8125 16.9062H2.1875M21.875 16.9062V18.5469C21.875 18.6919 21.8174 18.831 21.7148 18.9336C21.6123 19.0361 21.4732 19.0938 21.3281 19.0938H13.6719C13.5268 19.0938 13.3877 19.0361 13.2852 18.9336C13.1826 18.831 13.125 18.6919 13.125 18.5469V16.9062" stroke="white" stroke-width="2" stroke-linecap="round" stroke-linejoin="round"/>
</svg>
